HIERARCHY
ROOT Hips
{
    OFFSET 0.000000 0.000000 0.000000
    CHANNELS 6 Xposition Yposition Zposition Zrotation Xrotation Yrotation
    JOINT Spine
    {
        OFFSET -0.000002 8.335697 -0.000002
        CHANNELS 3 Zrotation Xrotation Yrotation
        JOINT Spine1
        {
            OFFSET 0.000001 24.027636 0.000014
            CHANNELS 3 Zrotation Xrotation Yrotation
            JOINT Neck
            {
                OFFSET -0.000000 26.824327 -0.000007
                CHANNELS 3 Zrotation Xrotation Yrotation
                JOINT Head
                {
                    OFFSET -0.000001 16.525597 2.035175
                    CHANNELS 3 Zrotation Xrotation Yrotation
                    End Site
                    {
                        OFFSET 0.000000 20.351660 0.000000
                    }
                }
            }
            JOINT LeftShoulder
            {
                OFFSET 4.036567 20.304844 -0.371918
                CHANNELS 3 Zrotation Xrotation Yrotation
                JOINT LeftArm
                {
                    OFFSET 12.502549 0.000004 0.000011
                    CHANNELS 3 Zrotation Xrotation Yrotation
                    JOINT LeftForeArm
                    {
                        OFFSET 31.806904 -0.000006 -0.000010
                        CHANNELS 3 Zrotation Xrotation Yrotation
                        JOINT LeftHand
                        {
                            OFFSET 24.843225 0.000003 -0.000003
                            CHANNELS 3 Zrotation Xrotation Yrotation
                            JOINT LeftHandThumb1
                            {
                                OFFSET 2.126757 -2.416759 3.383461
                                CHANNELS 3 Zrotation Xrotation Yrotation
                                JOINT LeftHandThumb2
                                {
                                    OFFSET 3.212126 -0.000001 -0.000004
                                    CHANNELS 3 Zrotation Xrotation Yrotation
                                    JOINT LeftHandThumb3
                                    {
                                        OFFSET 2.745434 0.000001 0.000000
                                        CHANNELS 3 Zrotation Xrotation Yrotation
                                        End Site
                                        {
                                            OFFSET 2.793713 0.000000 0.000000
                                        }
                                    }
                                }
                            }
                            JOINT LeftHandIndex1
                            {
                                OFFSET 8.700329 0.000001 3.383455
                                CHANNELS 3 Zrotation Xrotation Yrotation
                                JOINT LeftHandIndex2
                                {
                                    OFFSET 4.833525 0.000001 0.000006
                                    CHANNELS 3 Zrotation Xrotation Yrotation
                                    JOINT LeftHandIndex3
                                    {
                                        OFFSET 2.416755 0.000002 -0.000009
                                        CHANNELS 3 Zrotation Xrotation Yrotation
                                        End Site
                                        {
                                            OFFSET 2.459254 0.000000 0.000000
                                        }
                                    }
                                }
                            }
                            JOINT LeftHandMiddle1
                            {
                                OFFSET 8.700341 -0.000002 1.121385
                                CHANNELS 3 Zrotation Xrotation Yrotation
                                JOINT LeftHandMiddle2
                                {
                                    OFFSET 5.316873 -0.000000 0.000008
                                    CHANNELS 3 Zrotation Xrotation Yrotation
                                    JOINT LeftHandMiddle3
                                    {
                                        OFFSET 2.900104 0.000000 -0.000006
                                        CHANNELS 3 Zrotation Xrotation Yrotation
                                        End Site
                                        {
                                            OFFSET 2.951103 0.000000 0.000000
                                        }
                                    }
                                }
                            }
                            JOINT LeftHandRing1
                            {
                                OFFSET 8.216990 -0.000000 -1.121378
                                CHANNELS 3 Zrotation Xrotation Yrotation
                                JOINT LeftHandRing2
                                {
                                    OFFSET 4.833525 -0.000003 0.000005
                                    CHANNELS 3 Zrotation Xrotation Yrotation
                                    JOINT LeftHandRing3
                                    {
                                        OFFSET 2.416755 0.000000 -0.000009
                                        CHANNELS 3 Zrotation Xrotation Yrotation
                                        End Site
                                        {
                                            OFFSET 2.459254 0.000000 0.000000
                                        }
                                    }
                                }
                            }
                            JOINT LeftHandPinky1
                            {
                                OFFSET 7.733631 -0.000001 -3.383462
                                CHANNELS 3 Zrotation Xrotation Yrotation
                                JOINT LeftHandPinky2
                                {
                                    OFFSET 3.866827 -0.000004 0.000000
                                    CHANNELS 3 Zrotation Xrotation Yrotation
                                    JOINT LeftHandPinky3
                                    {
                                        OFFSET 1.933400 0.000000 -0.000000
                                        CHANNELS 3 Zrotation Xrotation Yrotation
                                        End Site
                                        {
                                            OFFSET 1.967405 0.000000 0.000000
                                        }
                                    }
                                }
                            }
                        }
                    }
                }
            }
            JOINT RightShoulder
            {
                OFFSET -4.036570 20.304852 -0.371915
                CHANNELS 3 Zrotation Xrotation Yrotation
                JOINT RightArm
                {
                    OFFSET -12.502551 0.000006 0.000004
                    CHANNELS 3 Zrotation Xrotation Yrotation
                    JOINT RightForeArm
                    {
                        OFFSET -31.806908 -0.000003 0.000005
                        CHANNELS 3 Zrotation Xrotation Yrotation
                        JOINT RightHand
                        {
                            OFFSET -24.843227 0.000002 -0.000003
                            CHANNELS 3 Zrotation Xrotation Yrotation
                            JOINT RightHandThumb1
                            {
                                OFFSET -2.126746 -2.416764 3.383457
                                CHANNELS 3 Zrotation Xrotation Yrotation
                                JOINT RightHandThumb2
                                {
                                    OFFSET -3.212137 -0.000002 0.000000
                                    CHANNELS 3 Zrotation Xrotation Yrotation
                                    JOINT RightHandThumb3
                                    {
                                        OFFSET -2.745448 0.000003 -0.000001
                                        CHANNELS 3 Zrotation Xrotation Yrotation
                                        End Site
                                        {
                                            OFFSET -2.793713 0.000000 0.000000
                                        }
                                    }
                                }
                            }
                            JOINT RightHandIndex1
                            {
                                OFFSET -8.700342 0.000007 3.383466
                                CHANNELS 3 Zrotation Xrotation Yrotation
                                JOINT RightHandIndex2
                                {
                                    OFFSET -4.833519 0.000002 0.000000
                                    CHANNELS 3 Zrotation Xrotation Yrotation
                                    JOINT RightHandIndex3
                                    {
                                        OFFSET -2.416759 0.000001 0.000001
                                        CHANNELS 3 Zrotation Xrotation Yrotation
                                        End Site
                                        {
                                            OFFSET -2.459254 0.000000 0.000000
                                        }
                                    }
                                }
                            }
                            JOINT RightHandMiddle1
                            {
                                OFFSET -8.700332 0.000001 1.121374
                                CHANNELS 3 Zrotation Xrotation Yrotation
                                JOINT RightHandMiddle2
                                {
                                    OFFSET -5.316862 -0.000001 -0.000001
                                    CHANNELS 3 Zrotation Xrotation Yrotation
                                    JOINT RightHandMiddle3
                                    {
                                        OFFSET -2.900102 -0.000002 -0.000001
                                        CHANNELS 3 Zrotation Xrotation Yrotation
                                        End Site
                                        {
                                            OFFSET -2.951103 0.000000 0.000000
                                        }
                                    }
                                }
                            }
                            JOINT RightHandRing1
                            {
                                OFFSET -8.216985 0.000006 -1.121373
                                CHANNELS 3 Zrotation Xrotation Yrotation
                                JOINT RightHandRing2
                                {
                                    OFFSET -4.833519 0.000002 0.000001
                                    CHANNELS 3 Zrotation Xrotation Yrotation
                                    JOINT RightHandRing3
                                    {
                                        OFFSET -2.416759 0.000000 0.000001
                                        CHANNELS 3 Zrotation Xrotation Yrotation
                                        End Site
                                        {
                                            OFFSET -2.459254 0.000000 0.000000
                                        }
                                    }
                                }
                            }
                            JOINT RightHandPinky1
                            {
                                OFFSET -7.733632 0.000004 -3.383462
                                CHANNELS 3 Zrotation Xrotation Yrotation
                                JOINT RightHandPinky2
                                {
                                    OFFSET -3.866814 -0.000003 -0.000004
                                    CHANNELS 3 Zrotation Xrotation Yrotation
                                    JOINT RightHandPinky3
                                    {
                                        OFFSET -1.933417 0.000003 0.000003
                                        CHANNELS 3 Zrotation Xrotation Yrotation
                                        End Site
                                        {
                                            OFFSET -1.967405 0.000000 0.000000
                                        }
                                    }
                                }
                            }
                        }
                    }
                }
            }
        }
    }
    JOINT LeftUpLeg
    {
        OFFSET 10.175828 -0.000002 0.000008
        CHANNELS 3 Zrotation Xrotation Yrotation
        JOINT LeftLeg
        {
            OFFSET 0.000001 -42.882954 0.000001
            CHANNELS 3 Zrotation Xrotation Yrotation
            JOINT LeftFoot
            {
                OFFSET 0.000002 -39.006771 0.000003
                CHANNELS 3 Zrotation Xrotation Yrotation
                JOINT LeftToeBase
                {
                    OFFSET -0.000001 -6.614286 15.263732
                    CHANNELS 3 Zrotation Xrotation Yrotation
                    End Site
                    {
                        OFFSET 0.000000 0.000000 4.070332
                    }
                }
            }
        }
    }
    JOINT RightUpLeg
    {
        OFFSET -10.175828 0.000002 -0.000008
        CHANNELS 3 Zrotation Xrotation Yrotation
        JOINT RightLeg
        {
            OFFSET 0.000004 -42.882942 0.000011
            CHANNELS 3 Zrotation Xrotation Yrotation
            JOINT RightFoot
            {
                OFFSET 0.000001 -39.006771 0.000000
                CHANNELS 3 Zrotation Xrotation Yrotation
                JOINT RightToeBase
                {
                    OFFSET 0.000003 -6.614286 15.263741
                    CHANNELS 3 Zrotation Xrotation Yrotation
                    End Site
                    {
                        OFFSET 0.000000 0.000000 4.070332
                    }
                }
            }
        }
    }
}
MOTION
Frames:    4
Frame Time:    0.002778
-10.308717    84.798553    223.203857    3.479165    -5.124514    -19.087753    0.375454    7.584142    -0.880214    1.877254    7.580281    -1.078381    4.501544    9.332609    4.495955    4.501547    9.332613    4.495949    -6.260278    -1.216428    1.349760    -48.574303    33.839245    -33.506683    -8.931119    -4.601542    -141.082138    10.777506    4.826886    23.949751    47.448208    38.866432    -34.355022    -35.000004    -0.000001    0.000002    -0.000000    0.000000    -0.000000    0.000004    10.000005    -0.000002    -0.000000    0.000000    -0.000000    -0.000000    0.000000    -0.000000    -0.000000    0.000000    -0.000000    -0.000000    0.000000    -0.000000    -0.000000    0.000000    -0.000000    -0.000000    0.000000    -0.000000    -0.000000    0.000000    -0.000000    -0.000000    0.000000    -0.000000    -0.000000    -9.999993    -0.000002    -0.000000    0.000000    -0.000000    -0.000000    0.000000    -0.000000    -4.091900    -3.754616    3.299244    40.290340    18.416239    40.383106    -33.341621    -18.695391    64.332634    -2.329208    2.266555    -39.672153    -47.448215    38.866444    34.355030    34.999996    0.000003    0.000010    -0.000000    0.000000    -0.000000    -0.000001    10.000005    -0.000003    -0.000000    0.000000    -0.000000    -0.000000    0.000000    -0.000000    -0.000000    0.000000    -0.000000    -0.000000    0.000000    -0.000000    -0.000000    0.000000    -0.000000    -0.000000    0.000000    -0.000000    -0.000000    0.000000    -0.000000    -0.000000    0.000000    -0.000000    -0.000002    -9.999992    -0.000007    -0.000000    0.000000    -0.000000    -0.000000    0.000000    -0.000000    7.068470    -11.961706    2.032647    -0.000002    57.137741    0.000003    -15.178420    -40.125729    19.346853    0.000000    -1.083202    0.000000    -17.197544    -28.428106    0.262021    0.000002    61.852867    -0.000006    16.821323    -27.345182    15.581780    -0.000000    -0.907312    -0.000001    
-10.327028    84.858795    223.140747    3.561921    -5.054434    -18.951693    0.374134    7.557823    -0.699779    1.870653    7.554000    -0.896572    4.477775    9.284788    4.349273    4.477772    9.284791    4.349272    -6.281397    -1.243842    1.292160    -48.510235    33.725487    -33.555603    -8.898670    -4.619555    -141.135437    10.755967    4.826835    23.990993    47.448204    38.866428    -34.355030    -35.000004    -0.000002    -0.000003    -0.000000    0.000000    -0.000000    0.000000    10.000007    -0.000003    -0.000000    0.000000    -0.000000    -0.000000    0.000000    -0.000000    -0.000000    0.000000    -0.000000    -0.000000    0.000000    -0.000000    -0.000000    0.000000    -0.000000    -0.000000    0.000000    -0.000000    -0.000000    0.000000    -0.000000    -0.000000    0.000000    -0.000000    0.000000    -9.999995    0.000000    -0.000000    0.000000    -0.000000    -0.000000    0.000000    -0.000000    -4.129240    -3.841591    3.439693    39.638748    17.750328    41.157585    -32.943913    -18.661930    64.049812    -2.396958    2.312619    -39.634499    -47.448212    38.866428    34.355034    35.000004    0.000005    0.000009    -0.000000    0.000000    -0.000000    0.000002    9.999997    0.000001    -0.000000    0.000000    -0.000000    -0.000000    0.000000    -0.000000    -0.000000    0.000000    -0.000000    -0.000000    0.000000    -0.000000    -0.000000    0.000000    -0.000000    -0.000000    0.000000    -0.000000    -0.000000    0.000000    -0.000000    -0.000000    0.000000    -0.000000    0.000000    -10.000001    0.000002    -0.000000    0.000000    -0.000000    -0.000000    0.000000    -0.000000    7.058303    -12.032559    2.028304    -0.000008    56.930344    0.000009    -15.221492    -39.981049    19.244137    -0.000000    -1.078042    0.000001    -17.229948    -28.445562    0.227242    0.000002    61.732201    -0.000003    16.775526    -27.295071    15.442883    -0.000001    -0.897623    0.000002    
-10.344037    84.920547    223.078583    3.645209    -4.982566    -18.825571    0.372115    7.531766    -0.511297    1.860569    7.528002    -0.706364    4.455582    9.231297    4.198442    4.455580    9.231302    4.198442    -6.296165    -1.264289    1.229871    -48.436031    33.618412    -33.614086    -8.859935    -4.626326    -141.187866    10.735496    4.826921    24.031002    47.448215    38.866444    -34.355030    -34.999996    -0.000001    -0.000003    -0.000000    0.000000    -0.000000    0.000000    10.000007    -0.000002    -0.000000    0.000000    -0.000000    -0.000000    0.000000    -0.000000    -0.000000    0.000000    -0.000000    -0.000000    0.000000    -0.000000    -0.000000    0.000000    -0.000000    -0.000000    0.000000    -0.000000    -0.000000    0.000000    -0.000000    -0.000000    0.000000    -0.000000    0.000007    -9.999999    -0.000001    -0.000000    0.000000    -0.000000    -0.000000    0.000000    -0.000000    -4.158273    -3.921407    3.590825    39.035107    17.061399    41.913998    -32.512962    -18.635996    63.747059    -2.469293    2.361030    -39.587868    -47.448215    38.866440    34.355038    34.999996    -0.000003    0.000007    -0.000000    0.000000    -0.000000    -0.000001    10.000008    -0.000015    -0.000000    0.000000    -0.000000    -0.000000    0.000000    -0.000000    -0.000000    0.000000    -0.000000    -0.000000    0.000000    -0.000000    -0.000000    0.000000    -0.000000    -0.000000    0.000000    -0.000000    -0.000000    0.000000    -0.000000    -0.000000    0.000000    -0.000000    -0.000004    -9.999996    -0.000009    -0.000000    0.000000    -0.000000    -0.000000    0.000000    -0.000000    7.047934    -12.102685    2.022049    0.000001    56.721684    -0.000004    -15.272665    -39.825981    19.137297    0.000000    -1.062351    0.000003    -17.262768    -28.465624    0.192669    -0.000001    61.607410    0.000002    16.727131    -27.239927    15.303865    0.000000    -0.889484    0.000001    
-10.362863    84.982124    223.015350    3.727802    -4.907995    -18.693100    0.369536    7.505653    -0.325226    1.847669    7.501951    -0.518269    4.439769    9.175513    4.054063    4.439767    9.175508    4.054067    -6.321628    -1.284999    1.161738    -48.370617    33.517895    -33.668983    -8.827962    -4.634265    -141.238693    10.717718    4.827125    24.066351    47.448215    38.866428    -34.355030    -34.999996    0.000000    0.000002    -0.000000    0.000000    -0.000000    0.000004    9.999998    -0.000002    -0.000000    0.000000    -0.000000    -0.000000    0.000000    -0.000000    -0.000000    0.000000    -0.000000    -0.000000    0.000000    -0.000000    -0.000000    0.000000    -0.000000    -0.000000    0.000000    -0.000000    -0.000000    0.000000    -0.000000    -0.000000    0.000000    -0.000000    0.000007    -10.000005    -0.000001    -0.000000    0.000000    -0.000000    -0.000000    0.000000    -0.000000    -4.191504    -4.000293    3.722904    38.473755    16.337618    42.650402    -32.055851    -18.634108    63.458817    -2.540907    2.405997    -39.511822    -47.448215    38.866444    34.355034    35.000000    -0.000001    -0.000000    -0.000000    0.000000    -0.000000    0.000000    10.000001    -0.000002    -0.000000    0.000000    -0.000000    -0.000000    0.000000    -0.000000    -0.000000    0.000000    -0.000000    -0.000000    0.000000    -0.000000    -0.000000    0.000000    -0.000000    -0.000000    0.000000    -0.000000    -0.000000    0.000000    -0.000000    -0.000000    0.000000    -0.000000    -0.000001    -10.000000    -0.000001    -0.000000    0.000000    -0.000000    -0.000000    0.000000    -0.000000    7.040768    -12.172905    2.017389    0.000006    56.507671    -0.000004    -15.328362    -39.677124    19.025377    -0.000000    -1.047868    0.000002    -17.294357    -28.485661    0.156288    0.000003    61.482727    -0.000004    16.673342    -27.188824    15.164147    -0.000000    -0.878527    -0.000000    
